<svg width="56" height="56" viewBox="0 0 56 56" fill="none" xmlns="http://www.w3.org/2000/svg">
<rect x="1" y="1" width="54" height="54" rx="27" stroke="#2F2F3B" stroke-width="2"/>
<path d="M27.4089 34.1096L27.4074 34.1083C25.1425 32.0545 23.3433 30.4181 22.0985 28.8952C20.8648 27.3858 20.2807 26.1105 20.2807 24.7956C20.2807 22.6548 21.9418 21 24.0763 21C25.2912 21 26.4737 21.5707 27.2412 22.4649L28 23.3491L28.7588 22.4649C29.5263 21.5707 30.7088 21 31.9237 21C34.0582 21 35.7193 22.6548 35.7193 24.7956C35.7193 26.1105 35.1352 27.3858 33.9015 28.8952C32.6567 30.4181 30.8575 32.0545 28.5926 34.1083L28.5911 34.1096L28 34.6477L27.4089 34.1096Z" stroke="#C0C0CC" stroke-width="2"/>
</svg>
